<svg xmlns="http://www.w3.org/2000/svg" viewBox="0 0 32 32" width="32" height="32">
  <defs>
    <linearGradient id="grad1" x1="0%" y1="0%" x2="100%" y2="100%">
      <stop offset="0%" style="stop-color:#6366f1;stop-opacity:1" />
      <stop offset="100%" style="stop-color:#8b5cf6;stop-opacity:1" />
    </linearGradient>
    <linearGradient id="grad2" x1="0%" y1="0%" x2="100%" y2="100%">
      <stop offset="0%" style="stop-color:#f59e0b;stop-opacity:1" />
      <stop offset="100%" style="stop-color:#ef4444;stop-opacity:1" />
    </linearGradient>
  </defs>
  
  <!-- Background circle -->
  <circle cx="16" cy="16" r="15" fill="url(#grad1)" stroke="#fff" stroke-width="1"/>
  
  <!-- Musical note symbol -->
  <g fill="url(#grad2)">
    <!-- Note stem -->
    <rect x="19" y="8" width="2" height="14" rx="1"/>
    
    <!-- Note head -->
    <ellipse cx="16" cy="20" rx="3" ry="2" transform="rotate(-20 16 20)"/>
    
    <!-- Flag/beam -->
    <path d="M21 8 Q26 6 28 10 Q26 12 21 14 Z"/>
  </g>
  
  <!-- Sound waves -->
  <g stroke="#fff" stroke-width="1.5" fill="none" opacity="0.8">
    <path d="M8 12 Q10 16 8 20"/>
    <path d="M5 10 Q8 16 5 22"/>
    <path d="M24 12 Q26 16 24 20"/>
    <path d="M27 10 Q29 16 27 22"/>
  </g>
  
  <!-- Small decorative dots -->
  <circle cx="12" cy="10" r="1" fill="#fff" opacity="0.6"/>
  <circle cx="20" cy="24" r="1" fill="#fff" opacity="0.6"/>
  <circle cx="8" cy="24" r="1" fill="#fff" opacity="0.6"/>
</svg>